<?xml version="1.0" encoding="UTF-8" standalone="no"?>
<!DOCTYPE svg PUBLIC "-//W3C//DTD SVG 1.1//EN"
 "http://www.w3.org/Graphics/SVG/1.1/DTD/svg11.dtd">
<!-- Generated by graphviz version 2.40.1 (20161225.0304)
 -->
<!-- Title: models_diagram Pages: 1 -->
<svg width="541pt" height="123pt"
 viewBox="0.00 0.00 541.08 123.00" xmlns="http://www.w3.org/2000/svg" xmlns:xlink="http://www.w3.org/1999/xlink">
<g id="graph0" class="graph" transform="scale(1 1) rotate(0) translate(4 119)">
<title>models_diagram</title>
<polygon fill="transparent" stroke="transparent" points="-4,4 -4,-119 537.0835,-119 537.0835,4 -4,4"/>
<!-- _diagram_info -->
<g id="node1" class="node">
<title>_diagram_info</title>
<text text-anchor="start" x="8" y="-79.6" font-family="Times,serif" font-size="13.00" fill="#000000">Models diagram</text>
<text text-anchor="start" x="8" y="-66.6" font-family="Times,serif" font-size="13.00" fill="#000000">Date: Oct 18 2017 &#45; 16:41</text>
<text text-anchor="start" x="8" y="-53.6" font-family="Times,serif" font-size="13.00" fill="#000000">Migration version: 20171018205750</text>
<text text-anchor="start" x="8" y="-40.6" font-family="Times,serif" font-size="13.00" fill="#000000">Generated by RailRoady 1.5.3</text>
<text text-anchor="start" x="8" y="-27.6" font-family="Times,serif" font-size="13.00" fill="#000000">http://railroady.prestonlee.com</text>
</g>
<!-- Alarm -->
<g id="node2" class="node">
<title>Alarm</title>
<path fill="none" stroke="#000000" d="M237.0237,-.5C237.0237,-.5 348.3518,-.5 348.3518,-.5 354.3518,-.5 360.3518,-6.5 360.3518,-12.5 360.3518,-12.5 360.3518,-102.5 360.3518,-102.5 360.3518,-108.5 354.3518,-114.5 348.3518,-114.5 348.3518,-114.5 237.0237,-114.5 237.0237,-114.5 231.0237,-114.5 225.0237,-108.5 225.0237,-102.5 225.0237,-102.5 225.0237,-12.5 225.0237,-12.5 225.0237,-6.5 231.0237,-.5 237.0237,-.5"/>
<text text-anchor="middle" x="292.6877" y="-99.3" font-family="Times,serif" font-size="14.00" fill="#000000">Alarm</text>
<polyline fill="none" stroke="#000000" points="225.0237,-92.5 360.3518,-92.5 "/>
<text text-anchor="start" x="233.0237" y="-77.3" font-family="Times,serif" font-size="14.00" fill="#000000">id :INTEGER</text>
<text text-anchor="start" x="233.0237" y="-63.3" font-family="Times,serif" font-size="14.00" fill="#000000">repeat_time :time</text>
<text text-anchor="start" x="233.0237" y="-49.3" font-family="Times,serif" font-size="14.00" fill="#000000">repeat_date :date</text>
<text text-anchor="start" x="233.0237" y="-35.3" font-family="Times,serif" font-size="14.00" fill="#000000">repeat_once :boolean</text>
<text text-anchor="start" x="233.0237" y="-21.3" font-family="Times,serif" font-size="14.00" fill="#000000">created_at :datetime</text>
<text text-anchor="start" x="233.0237" y="-7.3" font-family="Times,serif" font-size="14.00" fill="#000000">updated_at :datetime</text>
</g>
<!-- ApplicationRecord -->
<g id="node3" class="node">
<title>ApplicationRecord</title>
<ellipse fill="none" stroke="#000000" cx="455.6877" cy="-57.5" rx="77.2916" ry="18"/>
<text text-anchor="middle" x="455.6877" y="-53.3" font-family="Times,serif" font-size="14.00" fill="#000000">ApplicationRecord</text>
</g>
</g>
</svg>
